<svg width="1000" height="1000" viewBox="0 0 1000 1000" fill="none" xmlns="http://www.w3.org/2000/svg">
<rect width="1000" height="1000" rx="250" fill="#05193E"/>
<mask id="mask0_75_159" style="mask-type:alpha" maskUnits="userSpaceOnUse" x="0" y="0" width="1000" height="1000">
<rect width="1000" height="1000" rx="250" fill="#05193E"/>
</mask>
<g mask="url(#mask0_75_159)">
<rect x="778.012" y="213.177" width="638" height="791.534" transform="rotate(45.9212 778.012 213.177)" fill="#2C0271"/>
</g>
<mask id="path-4-inside-1_75_159" fill="white">
<path d="M773 212C781.284 212 788 218.716 788 227L788 500L500 500L500 212L773 212Z"/>
</mask>
<path d="M773 212C781.284 212 788 218.716 788 227L788 500L500 500L500 212L773 212Z" fill="#4AA8FF"/>
<path d="M773 192C792.33 192 808 207.67 808 227L808 502L768 498L768 232L773 192ZM498 502L498 192L502 232L502 498L498 502ZM498 192L773 192C792.33 192 808 207.67 808 227L768 232L502 232L498 192ZM808 502L498 502L502 498L768 498L808 502Z" fill="#95E5FF" mask="url(#path-4-inside-1_75_159)"/>
<mask id="path-6-inside-2_75_159" fill="white">
<path d="M788 773C788 781.284 781.284 788 773 788L500 788L500 500L788 500L788 773Z"/>
</mask>
<path d="M788 773C788 781.284 781.284 788 773 788L500 788L500 500L788 500L788 773Z" fill="#4AA8FF"/>
<path d="M808 773C808 792.33 792.33 808 773 808L498 808L502 768L768 768L808 773ZM498 498L808 498L768 502L502 502L498 498ZM808 498L808 773C808 792.33 792.33 808 773 808L768 768L768 502L808 498ZM498 808L498 498L502 502L502 768L498 808Z" fill="#95E5FF" mask="url(#path-6-inside-2_75_159)"/>
<mask id="path-8-inside-3_75_159" fill="white">
<path d="M227 788C218.716 788 212 781.284 212 773L212 500L500 500L500 788L227 788Z"/>
</mask>
<path d="M227 788C218.716 788 212 781.284 212 773L212 500L500 500L500 788L227 788Z" fill="#4AA8FF"/>
<path d="M227 808C207.67 808 192 792.33 192 773L192 498L232 502L232 768L227 808ZM502 498L502 808L498 768L498 502L502 498ZM502 808L227 808C207.67 808 192 792.33 192 773L232 768L498 768L502 808ZM192 498L502 498L498 502L232 502L192 498Z" fill="#95E5FF" mask="url(#path-8-inside-3_75_159)"/>
<mask id="path-10-inside-4_75_159" fill="white">
<path d="M212 227C212 218.716 218.716 212 227 212L500 212L500 500L212 500L212 227Z"/>
</mask>
<path d="M212 227C212 218.716 218.716 212 227 212L500 212L500 500L212 500L212 227Z" fill="#4AA8FF"/>
<path d="M192 227C192 207.67 207.67 192 227 192L502 192L498 232L232 232L192 227ZM502 502L192 502L232 498L498 498L502 502ZM192 502L192 227C192 207.67 207.67 192 227 192L232 232L232 498L192 502ZM502 192L502 502L498 498L498 232L502 192Z" fill="#95E5FF" mask="url(#path-10-inside-4_75_159)"/>
<rect x="467.2" y="244.8" width="222.4" height="222.4" rx="16" transform="rotate(90 467.2 244.8)" fill="white" stroke="#D3D3D3" stroke-width="8"/>
<rect x="755.2" y="532.8" width="222.4" height="222.4" rx="16" transform="rotate(90 755.2 532.8)" fill="#535353" stroke="#151515" stroke-width="8"/>
<path d="M94.8179 441.498V483.389H85.9611V449.905H85.7156L76.1225 455.918V448.064L86.4929 441.498H94.8179Z" fill="black"/>
</svg>
