<svg width="300" height="300" viewBox="0 0 300 300" fill="none" xmlns="http://www.w3.org/2000/svg">
<mask id="path-1-inside-1_41_8" fill="white">
<path d="M285 -6.55671e-07C293.284 -2.93554e-07 300 6.71573 300 15L300 150L150 150L150 -6.55671e-06L285 -6.55671e-07Z"/>
</mask>
<path d="M285 -6.55671e-07C293.284 -2.93554e-07 300 6.71573 300 15L300 150L150 150L150 -6.55671e-06L285 -6.55671e-07Z" fill="#4AA8FF"/>
<path d="M285 -10C298.807 -10 310 1.19288 310 15L310 151L290 149L290 15C290 12.2386 287.761 10 285 10L285 -10ZM149 151L149 -10L151 9.99999L151 149L149 151ZM149 -10L285 -10C298.807 -10 310 1.19288 310 15L290 15C290 12.2386 287.761 10 285 10L151 9.99999L149 -10ZM310 151L149 151L151 149L290 149L310 151Z" fill="#95E5FF" mask="url(#path-1-inside-1_41_8)"/>
<mask id="path-3-inside-2_41_8" fill="white">
<path d="M300 285C300 293.284 293.284 300 285 300L150 300L150 150L300 150L300 285Z"/>
</mask>
<path d="M300 285C300 293.284 293.284 300 285 300L150 300L150 150L300 150L300 285Z" fill="#4AA8FF"/>
<path d="M310 285C310 298.807 298.807 310 285 310L149 310L151 290L285 290C287.761 290 290 287.761 290 285L310 285ZM149 149L310 149L290 151L151 151L149 149ZM310 149L310 285C310 298.807 298.807 310 285 310L285 290C287.761 290 290 287.761 290 285L290 151L310 149ZM149 310L149 149L151 151L151 290L149 310Z" fill="#95E5FF" mask="url(#path-3-inside-2_41_8)"/>
<mask id="path-5-inside-3_41_8" fill="white">
<path d="M15 300C6.71573 300 8.80661e-07 293.284 1.96701e-06 285L1.96701e-05 150L150 150L150 300L15 300Z"/>
</mask>
<path d="M15 300C6.71573 300 8.80661e-07 293.284 1.96701e-06 285L1.96701e-05 150L150 150L150 300L15 300Z" fill="#4AA8FF"/>
<path d="M15 310C1.19288 310 -10 298.807 -10 285L-9.99998 149L10 151L10 285C10 287.761 12.2386 290 15 290L15 310ZM151 149L151 310L149 290L149 151L151 149ZM151 310L15 310C1.19288 310 -10 298.807 -10 285L10 285C10 287.761 12.2386 290 15 290L149 290L151 310ZM-9.99998 149L151 149L149 151L10 151L-9.99998 149Z" fill="#95E5FF" mask="url(#path-5-inside-3_41_8)"/>
<mask id="path-7-inside-4_41_8" fill="white">
<path d="M0 15C0 6.71573 6.71573 0 15 0L150 0L150 150L0 150L0 15Z"/>
</mask>
<path d="M0 15C0 6.71573 6.71573 0 15 0L150 0L150 150L0 150L0 15Z" fill="#4AA8FF"/>
<path d="M-10 15C-10 1.19288 1.19288 -10 15 -10L151 -10L149 10L15 10C12.2386 10 10 12.2386 10 15L-10 15ZM151 151L-10 151L10 149L149 149L151 151ZM-10 151L-10 15C-10 1.19288 1.19288 -10 15 -10L15 10C12.2386 10 10 12.2386 10 15L10 149L-10 151ZM151 -10L151 151L149 149L149 10L151 -10Z" fill="#95E5FF" mask="url(#path-7-inside-4_41_8)"/>
<rect x="131" y="19" width="112" height="112" rx="16" transform="rotate(90 131 19)" fill="white" stroke="#D3D3D3" stroke-width="8"/>
<rect x="281" y="169" width="112" height="112" rx="16" transform="rotate(90 281 169)" fill="#535353" stroke="#151515" stroke-width="8"/>
</svg>
